<svg xmlns="http://www.w3.org/2000/svg" version="1.1" xmlns:xlink="http://www.w3.org/1999/xlink" xmlns:svgjs="http://svgjs.dev/svgjs" width="1000" height="750" viewBox="0 0 1000 750"><rect width="1000" height="750" fill="#ffffff"></rect><g transform="matrix(0.834,0,0,0.834,82.49454545454546,328.45457097329967)"><svg viewBox="0 0 396 44" data-background-color="#ffffff" preserveAspectRatio="xMidYMid meet" height="111" width="1000" xmlns="http://www.w3.org/2000/svg" xmlns:xlink="http://www.w3.org/1999/xlink"><g id="tight-bounds" transform="matrix(1,0,0,1,0.2400000000000091,0.12283203717723268)"><svg viewBox="0 0 395.52 43.75433687534432" height="43.75433687534432" width="395.52"><g><svg viewBox="0 0 657.1124224843295 72.69295686274509" height="43.75433687534432" width="395.52"><g transform="matrix(1,0,0,1,261.5924224843294,0)"><svg viewBox="0 0 395.52000000000004 72.69295686274509" height="72.69295686274509" width="395.52000000000004"><g id="textblocktransform"><svg viewBox="0 0 395.52000000000004 72.69295686274509" height="72.69295686274509" width="395.52000000000004" id="textblock"><g><svg viewBox="0 0 395.52000000000004 72.69295686274509" height="72.69295686274509" width="395.52000000000004"><g transform="matrix(1,0,0,1,0,0)"><svg width="395.52000000000004" viewBox="2.5 -35.099998474121094 191.24000549316406 35.14999771118164" height="72.69295686274509" data-palette-color="#030705"><path d="M5.75-32.25L2.5-32.25 2.5-35 13.25-35Q24.05-35 24.05-26.55L24.05-26.55Q24.05-23 21.35-18.9L21.35-18.9Q26.1-16.95 26.1-10.35L26.1-10.35Q26.1-4.45 23.13-2.23 20.15 0 14 0L14 0 2.5 0 2.5-2.75 5.75-2.75 5.75-32.25ZM15-17.15L15-17.15 9.15-17.15 9.15-2.75 13.75-2.75Q16.05-2.75 17.5-3 18.95-3.25 20.25-4L20.25-4Q22.7-5.35 22.7-10.15L22.7-10.15Q22.7-13.95 20.78-15.55 18.85-17.15 15-17.15ZM9.15-19.9L15.25-19.9Q17.1-19.9 18.45-19.7L18.45-19.7Q20.65-23.15 20.65-26.25L20.65-26.25Q20.65-32.25 13-32.25L13-32.25 9.15-32.25 9.15-19.9ZM61.1 0L51 0 51-2.75 54.05-2.75 51.75-9.25 36.35-9.25 34.1-2.75 37.7-2.75 37.7 0 27.6 0 27.6-2.75 30.9-2.75 42.55-35 45.6-35 57.65-2.75 61.1-2.75 61.1 0ZM50.85-11.75L43.9-31.2 37.2-11.75 50.85-11.75ZM96.4 0L86.3 0 86.3-2.75 89.35-2.75 87.05-9.25 71.65-9.25 69.4-2.75 73-2.75 73 0 62.9 0 62.9-2.75 66.2-2.75 77.85-35 80.9-35 92.95-2.75 96.4-2.75 96.4 0ZM86.15-11.75L79.2-31.2 72.5-11.75 86.15-11.75ZM108.59-2.95L108.59-2.95Q114.14-2.95 116.84-5.75L116.84-5.75Q118.39-7.35 118.39-9.55 118.39-11.75 117.32-13.18 116.24-14.6 114.54-15.38 112.84-16.15 110.77-16.73 108.69-17.3 106.62-17.95 104.54-18.6 102.84-19.5 101.14-20.4 100.07-22.05 98.99-23.7 98.99-26L98.99-26Q98.99-30 101.99-32.55 104.99-35.1 109.94-35.1 114.89-35.1 119.24-34.1L119.24-34.1 119.24-34.05 119.39-34.05 119.94-27.8 117.49-27.4 116.94-31.6Q114.14-32.1 110.77-32.1 107.39-32.1 104.89-30.63 102.39-29.15 102.39-26.45 102.39-23.75 104.39-22.35 106.39-20.95 109.24-20.23 112.09-19.5 114.94-18.6 117.79-17.7 119.79-15.5 121.79-13.3 121.79-9.7L121.79-9.7Q121.79-4.85 118.19-2.4 114.59 0.05 109.24 0.05L109.24 0.05Q102.49 0.05 97.94-3L97.94-3 97.99-8.3 100.44-8.55 100.54-4.75Q104.34-2.95 108.59-2.95ZM128.34-32.25L125.04-32.25 125.04-35 135.14-35 135.14-32.25 131.74-32.25 131.74-2.75 135.14-2.75 135.14 0 125.04 0 125.04-2.75 128.34-2.75 128.34-32.25ZM154.19 0L144.14 0 144.14-2.75 147.39-2.75 147.39-32 140.04-32 139.49-27.4 137.04-27.8 137.64-35 160.44-35 161.09-27.8 158.59-27.4 157.99-32 150.54-32 150.54-2.75 154.19-2.75 154.19 0ZM193.74 0L183.64 0 183.64-2.75 187.04-2.75 187.04-15.85 169.99-15.85 169.99-2.75 173.69-2.75 173.69 0 163.59 0 163.59-2.75 166.84-2.75 166.84-32.25 163.59-32.25 163.59-35 173.69-35 173.69-32.25 169.99-32.25 169.99-18.85 187.04-18.85 187.04-32.25 183.64-32.25 183.64-35 193.24-35 193.24-32.25 190.19-32.25 190.19-2.75 193.74-2.75 193.74 0Z" opacity="1" transform="matrix(1,0,0,1,0,0)" fill="#030705" class="wordmark-text-0" data-fill-palette-color="primary" id="text-0"></path></svg></g></svg></g></svg></g></svg></g><g transform="matrix(1,0,0,1,0,9.986233725490191)"><svg viewBox="0 0 244.43136 52.72048941176471" height="52.72048941176471" width="244.43136"><g><svg xmlns="http://www.w3.org/2000/svg" data-name="Your Icon" viewBox="24.5 39 51 11" x="0" y="0" height="52.72048941176471" width="244.43136" class="icon-icon-0" data-fill-palette-color="accent" id="icon-0"><path d="M42 45H27a2.5 2.5 0 0 0 0 5H42a2.5 2.5 0 0 0 0-5Z" fill="#096a2e" data-fill-palette-color="accent"></path><circle cx="52" cy="42.5" r="3.5" fill="#096a2e" data-fill-palette-color="accent"></circle><circle cx="62" cy="42.5" r="3.5" fill="#096a2e" data-fill-palette-color="accent"></circle><circle cx="72" cy="42.5" r="3.5" fill="#096a2e" data-fill-palette-color="accent"></circle></svg></g></svg></g></svg></g><defs></defs></svg><rect width="395.52" height="43.75433687534432" fill="none" stroke="none" visibility="hidden"></rect></g></svg></g></svg>