<svg xmlns="http://www.w3.org/2000/svg" version="1.1" xmlns:xlink="http://www.w3.org/1999/xlink" xmlns:svgjs="http://svgjs.dev/svgjs" width="128" height="128" viewBox="0 0 128 128"><g transform="matrix(0.8046875,0,0,0.8046875,12.760752631578946,52.51654136029412)"><svg viewBox="0 0 95 21" data-background-color="#ffffff" preserveAspectRatio="xMidYMid meet" height="28" width="128" xmlns="http://www.w3.org/2000/svg" xmlns:xlink="http://www.w3.org/1999/xlink"><g id="tight-bounds" transform="matrix(1,0,0,1,-0.24049999999999727,0.20302941176470313)"><svg viewBox="0 0 95.481 20.593941176470587" height="20.593941176470587" width="95.481"><g><svg viewBox="0 0 95.481 20.593941176470587" height="20.593941176470587" width="95.481"><g><svg viewBox="0 0 95.481 20.593941176470587" height="20.593941176470587" width="95.481"><g id="textblocktransform"><svg viewBox="0 0 95.481 20.593941176470587" height="20.593941176470587" width="95.481" id="textblock"><g><svg viewBox="0 0 95.481 20.593941176470587" height="20.593941176470587" width="95.481"><g><svg viewBox="0 0 95.481 20.593941176470587" height="20.593941176470587" width="95.481"><g><svg xmlns="http://www.w3.org/2000/svg" data-name="Your Icon" viewBox="24.5 39 51 11" x="0" y="0" height="20.593941176470587" width="95.481" class="icon-icon-0" data-fill-palette-color="accent" id="icon-0"><path d="M42 45H27a2.5 2.5 0 0 0 0 5H42a2.5 2.5 0 0 0 0-5Z" fill="#ffffff" data-fill-palette-color="accent"></path><circle cx="52" cy="42.5" r="3.5" fill="#ffffff" data-fill-palette-color="accent"></circle><circle cx="62" cy="42.5" r="3.5" fill="#ffffff" data-fill-palette-color="accent"></circle><circle cx="72" cy="42.5" r="3.5" fill="#ffffff" data-fill-palette-color="accent"></circle></svg></g></svg></g></svg></g></svg></g></svg></g></svg></g><defs></defs></svg><rect width="95.481" height="20.593941176470587" fill="none" stroke="none" visibility="hidden"></rect></g></svg></g></svg>